<?xml version="1.0" encoding="UTF-8"?><svg viewBox="0 0 32 32" xmlns="http://www.w3.org/2000/svg"><path fill="#b3b3b3" d="M2.015,0.003l28,0c1.104,0 2,0.895 2,2l0,28c0,1.104 -0.896,2 -2,2l-28,0c-1.104,0 -2,-0.896 -2,-2l0,-28c0,-1.105 0.896,-2 2,-2Z"/><path fill="#ffffff" d="M4.515,3.003c0.829,0 1.5,0.671 1.5,1.5c0,0.829 -0.671,1.5 -1.5,1.5c-0.828,0 -1.5,-0.672 -1.5,-1.5c0,-0.829 0.672,-1.5 1.5,-1.5Z"/><path fill="#ffffff" d="M9.515,3.003c0.829,0 1.5,0.671 1.5,1.5c0,0.829 -0.671,1.5 -1.5,1.5c-0.828,0 -1.5,-0.672 -1.5,-1.5c0,-0.829 0.672,-1.5 1.5,-1.5Z"/><path fill="#ffffff" d="M14.515,3.003c0.829,0 1.5,0.671 1.5,1.5c0,0.829 -0.671,1.5 -1.5,1.5c-0.828,0 -1.5,-0.672 -1.5,-1.5c0,-0.829 0.672,-1.5 1.5,-1.5Z"/><rect fill="#ffffff" x="3.015" y="9.003" width="26" height="20"/><path fill="#5d9fd7" d="M20.999,18.262l-9.157,-5.099c-0.667,-0.407 -1.323,-0.079 -1.323,0.73l0,10.221c0,0.808 0.656,1.138 1.323,0.729l9.142,-5.024c0.848,-0.483 0.539,-1.262 0.015,-1.557Z"/></svg>